<mxfile host="Electron" modified="2023-08-11T11:11:44.300Z" agent="Mozilla/5.0 (Windows NT 10.0; Win64; x64) AppleWebKit/537.36 (KHTML, like Gecko) draw.io/21.6.8 Chrome/114.0.5735.289 Electron/25.5.0 Safari/537.36" etag="rlBwhjp4QjHFbm3Lhq7h" version="21.6.8" type="device">
  <diagram name="Страница 1" id="PjE37qe465DXwWyupwO6">
    <mxGraphModel dx="1036" dy="606" grid="1" gridSize="10" guides="1" tooltips="1" connect="1" arrows="1" fold="1" page="1" pageScale="1" pageWidth="827" pageHeight="1169" math="0" shadow="0">
      <root>
        <mxCell id="0" />
        <mxCell id="1" parent="0" />
        <mxCell id="A6gzNDOhWi2ns9ZcFzLb-3" value="" style="edgeStyle=orthogonalEdgeStyle;rounded=0;orthogonalLoop=1;jettySize=auto;html=1;" parent="1" source="A6gzNDOhWi2ns9ZcFzLb-1" target="A6gzNDOhWi2ns9ZcFzLb-2" edge="1">
          <mxGeometry relative="1" as="geometry" />
        </mxCell>
        <mxCell id="A6gzNDOhWi2ns9ZcFzLb-1" value="Start" style="ellipse;whiteSpace=wrap;html=1;" parent="1" vertex="1">
          <mxGeometry x="270" y="20" width="120" height="80" as="geometry" />
        </mxCell>
        <mxCell id="vsOPiw_uGc_njPWq8ppH-2" value="" style="edgeStyle=orthogonalEdgeStyle;rounded=0;orthogonalLoop=1;jettySize=auto;html=1;" edge="1" parent="1" source="A6gzNDOhWi2ns9ZcFzLb-2" target="vsOPiw_uGc_njPWq8ppH-1">
          <mxGeometry relative="1" as="geometry" />
        </mxCell>
        <mxCell id="A6gzNDOhWi2ns9ZcFzLb-2" value="array[5, 10, 15, 14, 20]&lt;br&gt;arr[]&lt;br&gt;i=0, j=0" style="shape=parallelogram;perimeter=parallelogramPerimeter;whiteSpace=wrap;html=1;fixedSize=1;" parent="1" vertex="1">
          <mxGeometry x="230" y="130" width="200" height="50" as="geometry" />
        </mxCell>
        <mxCell id="A6gzNDOhWi2ns9ZcFzLb-10" value="finish" style="ellipse;whiteSpace=wrap;html=1;" parent="1" vertex="1">
          <mxGeometry x="670" y="220" width="120" height="80" as="geometry" />
        </mxCell>
        <mxCell id="vsOPiw_uGc_njPWq8ppH-5" style="edgeStyle=orthogonalEdgeStyle;rounded=0;orthogonalLoop=1;jettySize=auto;html=1;" edge="1" parent="1" source="vsOPiw_uGc_njPWq8ppH-1" target="vsOPiw_uGc_njPWq8ppH-3">
          <mxGeometry relative="1" as="geometry" />
        </mxCell>
        <mxCell id="vsOPiw_uGc_njPWq8ppH-6" value="yes" style="edgeLabel;html=1;align=center;verticalAlign=middle;resizable=0;points=[];" vertex="1" connectable="0" parent="vsOPiw_uGc_njPWq8ppH-5">
          <mxGeometry x="0.033" relative="1" as="geometry">
            <mxPoint as="offset" />
          </mxGeometry>
        </mxCell>
        <mxCell id="vsOPiw_uGc_njPWq8ppH-16" style="edgeStyle=orthogonalEdgeStyle;rounded=0;orthogonalLoop=1;jettySize=auto;html=1;entryX=0;entryY=0.5;entryDx=0;entryDy=0;" edge="1" parent="1" source="vsOPiw_uGc_njPWq8ppH-1" target="vsOPiw_uGc_njPWq8ppH-15">
          <mxGeometry relative="1" as="geometry" />
        </mxCell>
        <mxCell id="vsOPiw_uGc_njPWq8ppH-17" value="no" style="edgeLabel;html=1;align=center;verticalAlign=middle;resizable=0;points=[];" vertex="1" connectable="0" parent="vsOPiw_uGc_njPWq8ppH-16">
          <mxGeometry x="-0.04" y="1" relative="1" as="geometry">
            <mxPoint as="offset" />
          </mxGeometry>
        </mxCell>
        <mxCell id="vsOPiw_uGc_njPWq8ppH-1" value="i&amp;lt;array[]" style="rhombus;whiteSpace=wrap;html=1;" vertex="1" parent="1">
          <mxGeometry x="240" y="220" width="180" height="80" as="geometry" />
        </mxCell>
        <mxCell id="vsOPiw_uGc_njPWq8ppH-7" value="" style="edgeStyle=orthogonalEdgeStyle;rounded=0;orthogonalLoop=1;jettySize=auto;html=1;" edge="1" parent="1" source="vsOPiw_uGc_njPWq8ppH-3" target="vsOPiw_uGc_njPWq8ppH-4">
          <mxGeometry relative="1" as="geometry" />
        </mxCell>
        <mxCell id="vsOPiw_uGc_njPWq8ppH-14" value="yes" style="edgeLabel;html=1;align=center;verticalAlign=middle;resizable=0;points=[];" vertex="1" connectable="0" parent="vsOPiw_uGc_njPWq8ppH-7">
          <mxGeometry x="-0.0017" relative="1" as="geometry">
            <mxPoint as="offset" />
          </mxGeometry>
        </mxCell>
        <mxCell id="vsOPiw_uGc_njPWq8ppH-9" style="edgeStyle=orthogonalEdgeStyle;rounded=0;orthogonalLoop=1;jettySize=auto;html=1;entryX=0;entryY=0.5;entryDx=0;entryDy=0;" edge="1" parent="1" source="vsOPiw_uGc_njPWq8ppH-3" target="vsOPiw_uGc_njPWq8ppH-8">
          <mxGeometry relative="1" as="geometry" />
        </mxCell>
        <mxCell id="vsOPiw_uGc_njPWq8ppH-10" value="no" style="edgeLabel;html=1;align=center;verticalAlign=middle;resizable=0;points=[];" vertex="1" connectable="0" parent="vsOPiw_uGc_njPWq8ppH-9">
          <mxGeometry x="0.0578" y="-2" relative="1" as="geometry">
            <mxPoint as="offset" />
          </mxGeometry>
        </mxCell>
        <mxCell id="vsOPiw_uGc_njPWq8ppH-3" value="arr[]&amp;lt;=3" style="rhombus;whiteSpace=wrap;html=1;" vertex="1" parent="1">
          <mxGeometry x="180" y="340" width="150" height="70" as="geometry" />
        </mxCell>
        <mxCell id="vsOPiw_uGc_njPWq8ppH-11" style="edgeStyle=orthogonalEdgeStyle;rounded=0;orthogonalLoop=1;jettySize=auto;html=1;" edge="1" parent="1" source="vsOPiw_uGc_njPWq8ppH-4">
          <mxGeometry relative="1" as="geometry">
            <mxPoint x="480" y="410" as="targetPoint" />
          </mxGeometry>
        </mxCell>
        <mxCell id="vsOPiw_uGc_njPWq8ppH-4" value="arr[j]=array[i]&lt;br&gt;j++" style="rounded=0;whiteSpace=wrap;html=1;" vertex="1" parent="1">
          <mxGeometry x="110" y="440" width="120" height="60" as="geometry" />
        </mxCell>
        <mxCell id="vsOPiw_uGc_njPWq8ppH-13" style="edgeStyle=orthogonalEdgeStyle;rounded=0;orthogonalLoop=1;jettySize=auto;html=1;entryX=1;entryY=1;entryDx=0;entryDy=0;" edge="1" parent="1" source="vsOPiw_uGc_njPWq8ppH-8" target="vsOPiw_uGc_njPWq8ppH-1">
          <mxGeometry relative="1" as="geometry" />
        </mxCell>
        <mxCell id="vsOPiw_uGc_njPWq8ppH-8" value="i++" style="rounded=0;whiteSpace=wrap;html=1;" vertex="1" parent="1">
          <mxGeometry x="420" y="345" width="120" height="60" as="geometry" />
        </mxCell>
        <mxCell id="vsOPiw_uGc_njPWq8ppH-18" value="" style="edgeStyle=orthogonalEdgeStyle;rounded=0;orthogonalLoop=1;jettySize=auto;html=1;" edge="1" parent="1" source="vsOPiw_uGc_njPWq8ppH-15" target="A6gzNDOhWi2ns9ZcFzLb-10">
          <mxGeometry relative="1" as="geometry" />
        </mxCell>
        <mxCell id="vsOPiw_uGc_njPWq8ppH-15" value="arr[]" style="shape=document;whiteSpace=wrap;html=1;boundedLbl=1;" vertex="1" parent="1">
          <mxGeometry x="490" y="220" width="120" height="80" as="geometry" />
        </mxCell>
      </root>
    </mxGraphModel>
  </diagram>
</mxfile>
